<svg width="240" height="112" viewBox="0 0 240 112" fill="none" xmlns="http://www.w3.org/2000/svg">
<g opacity="0.1">
<circle cx="8" cy="8" r="8" fill="#C4C4C4"/>
<circle cx="136" cy="8" r="8" fill="#C4C4C4"/>
<circle cx="8" cy="72" r="8" fill="#C4C4C4"/>
<circle cx="136" cy="72" r="8" fill="#C4C4C4"/>
<circle cx="8" cy="40" r="8" fill="#C4C4C4"/>
<circle cx="136" cy="40" r="8" fill="#C4C4C4"/>
<circle cx="8" cy="104" r="8" fill="#C4C4C4"/>
<circle cx="136" cy="104" r="8" fill="#C4C4C4"/>
<circle cx="40" cy="8" r="8" fill="#C4C4C4"/>
<circle cx="168" cy="8" r="8" fill="#C4C4C4"/>
<circle cx="40" cy="72" r="8" fill="#C4C4C4"/>
<circle cx="168" cy="72" r="8" fill="#C4C4C4"/>
<circle cx="40" cy="40" r="8" fill="#C4C4C4"/>
<circle cx="168" cy="40" r="8" fill="#C4C4C4"/>
<circle cx="40" cy="104" r="8" fill="#C4C4C4"/>
<circle cx="168" cy="104" r="8" fill="#C4C4C4"/>
<circle cx="72" cy="8" r="8" fill="#C4C4C4"/>
<circle cx="200" cy="8" r="8" fill="#C4C4C4"/>
<circle cx="72" cy="72" r="8" fill="#C4C4C4"/>
<circle cx="200" cy="72" r="8" fill="#C4C4C4"/>
<circle cx="72" cy="40" r="8" fill="#C4C4C4"/>
<circle cx="200" cy="40" r="8" fill="#C4C4C4"/>
<circle cx="72" cy="104" r="8" fill="#C4C4C4"/>
<circle cx="200" cy="104" r="8" fill="#C4C4C4"/>
<circle cx="104" cy="8" r="8" fill="#C4C4C4"/>
<circle cx="232" cy="8" r="8" fill="#C4C4C4"/>
<circle cx="104" cy="72" r="8" fill="#C4C4C4"/>
<circle cx="232" cy="72" r="8" fill="#C4C4C4"/>
<circle cx="104" cy="40" r="8" fill="#C4C4C4"/>
<circle cx="232" cy="40" r="8" fill="#C4C4C4"/>
<circle cx="104" cy="104" r="8" fill="#C4C4C4"/>
<circle cx="232" cy="104" r="8" fill="#C4C4C4"/>
</g>
</svg>
