<svg width="1428" height="2179" viewBox="0 0 1428 2179" fill="none" xmlns="http://www.w3.org/2000/svg">
<path d="M500.228 765.692L347.88 1505.34L-216.499 1003.58L500.228 765.692Z" fill="#F5FAFA"/>
<path d="M156 75L268.5 10.0481L268.5 139.952L156 75Z" fill="#309A9A" fill-opacity="0.05"/>
<path d="M1204 766L1316.5 701.048L1316.5 830.952L1204 766Z" fill="#309A9A" fill-opacity="0.05"/>
<path d="M1238 1790L1350.5 1725.05L1350.5 1854.95L1238 1790Z" fill="#309A9A" fill-opacity="0.05"/>
<g opacity="0.05">
<circle cx="1196" cy="187" r="8" fill="#309A9A"/>
<circle cx="1324" cy="187" r="8" fill="#309A9A"/>
<circle cx="1196" cy="251" r="8" fill="#309A9A"/>
<circle cx="1324" cy="251" r="8" fill="#309A9A"/>
<circle cx="1196" cy="219" r="8" fill="#309A9A"/>
<circle cx="1324" cy="219" r="8" fill="#309A9A"/>
<circle cx="1196" cy="283" r="8" fill="#309A9A"/>
<circle cx="1324" cy="283" r="8" fill="#309A9A"/>
<circle cx="1228" cy="187" r="8" fill="#309A9A"/>
<circle cx="1356" cy="187" r="8" fill="#309A9A"/>
<circle cx="1228" cy="251" r="8" fill="#309A9A"/>
<circle cx="1356" cy="251" r="8" fill="#309A9A"/>
<circle cx="1228" cy="219" r="8" fill="#309A9A"/>
<circle cx="1356" cy="219" r="8" fill="#309A9A"/>
<circle cx="1228" cy="283" r="8" fill="#309A9A"/>
<circle cx="1356" cy="283" r="8" fill="#309A9A"/>
<circle cx="1260" cy="187" r="8" fill="#309A9A"/>
<circle cx="1388" cy="187" r="8" fill="#309A9A"/>
<circle cx="1260" cy="251" r="8" fill="#309A9A"/>
<circle cx="1388" cy="251" r="8" fill="#309A9A"/>
<circle cx="1260" cy="219" r="8" fill="#309A9A"/>
<circle cx="1388" cy="219" r="8" fill="#309A9A"/>
<circle cx="1260" cy="283" r="8" fill="#309A9A"/>
<circle cx="1388" cy="283" r="8" fill="#309A9A"/>
<circle cx="1292" cy="187" r="8" fill="#309A9A"/>
<circle cx="1420" cy="187" r="8" fill="#309A9A"/>
<circle cx="1292" cy="251" r="8" fill="#309A9A"/>
<circle cx="1420" cy="251" r="8" fill="#309A9A"/>
<circle cx="1292" cy="219" r="8" fill="#309A9A"/>
<circle cx="1420" cy="219" r="8" fill="#309A9A"/>
<circle cx="1292" cy="283" r="8" fill="#309A9A"/>
<circle cx="1420" cy="283" r="8" fill="#309A9A"/>
</g>
<g opacity="0.05">
<circle cx="8" cy="2075" r="8" fill="#309A9A"/>
<circle cx="136" cy="2075" r="8" fill="#309A9A"/>
<circle cx="8" cy="2139" r="8" fill="#309A9A"/>
<circle cx="136" cy="2139" r="8" fill="#309A9A"/>
<circle cx="8" cy="2107" r="8" fill="#309A9A"/>
<circle cx="136" cy="2107" r="8" fill="#309A9A"/>
<circle cx="8" cy="2171" r="8" fill="#309A9A"/>
<circle cx="136" cy="2171" r="8" fill="#309A9A"/>
<circle cx="40" cy="2075" r="8" fill="#309A9A"/>
<circle cx="168" cy="2075" r="8" fill="#309A9A"/>
<circle cx="40" cy="2139" r="8" fill="#309A9A"/>
<circle cx="168" cy="2139" r="8" fill="#309A9A"/>
<circle cx="40" cy="2107" r="8" fill="#309A9A"/>
<circle cx="168" cy="2107" r="8" fill="#309A9A"/>
<circle cx="40" cy="2171" r="8" fill="#309A9A"/>
<circle cx="168" cy="2171" r="8" fill="#309A9A"/>
<circle cx="72" cy="2075" r="8" fill="#309A9A"/>
<circle cx="200" cy="2075" r="8" fill="#309A9A"/>
<circle cx="72" cy="2139" r="8" fill="#309A9A"/>
<circle cx="200" cy="2139" r="8" fill="#309A9A"/>
<circle cx="72" cy="2107" r="8" fill="#309A9A"/>
<circle cx="200" cy="2107" r="8" fill="#309A9A"/>
<circle cx="72" cy="2171" r="8" fill="#309A9A"/>
<circle cx="200" cy="2171" r="8" fill="#309A9A"/>
<circle cx="104" cy="2075" r="8" fill="#309A9A"/>
<circle cx="232" cy="2075" r="8" fill="#309A9A"/>
<circle cx="104" cy="2139" r="8" fill="#309A9A"/>
<circle cx="232" cy="2139" r="8" fill="#309A9A"/>
<circle cx="104" cy="2107" r="8" fill="#309A9A"/>
<circle cx="232" cy="2107" r="8" fill="#309A9A"/>
<circle cx="104" cy="2171" r="8" fill="#309A9A"/>
<circle cx="232" cy="2171" r="8" fill="#309A9A"/>
</g>
</svg>
