<svg width="80" height="80" viewBox="0 0 80 80" fill="none" xmlns="http://www.w3.org/2000/svg">
<path fill-rule="evenodd" clip-rule="evenodd" d="M40 8C22.3341 8 8 22.3341 8 40C8 57.6659 22.3341 72 40 72C57.6312 72 72 57.6659 72 40C72 22.3341 57.6312 8 40 8ZM61.1366 22.7505C64.9544 27.4013 67.2451 33.3363 67.3146 39.7571C66.4122 39.5835 57.3883 37.7441 48.295 38.8893C48.0868 38.4382 47.9132 37.9523 47.705 37.4664C47.1497 36.1475 46.5249 34.7939 45.9002 33.5098C55.9653 29.4143 60.5466 23.5141 61.1366 22.7505ZM40 12.7202C46.9414 12.7202 53.2929 15.3232 58.1171 19.5922C57.6312 20.2863 53.5011 25.8048 43.7831 29.449C39.3059 21.2234 34.3427 14.4902 33.5792 13.449C35.6269 12.9631 37.7788 12.7202 40 12.7202ZM28.3731 15.2885C29.102 16.2603 33.961 23.0282 38.5076 31.0803C25.7354 34.4815 14.4556 34.4122 13.2408 34.4122C15.0108 25.9436 20.7375 18.898 28.3731 15.2885ZM12.6508 40.0347C12.6508 39.7571 12.6508 39.4794 12.6508 39.2017C13.8308 39.2364 27.089 39.41 40.7288 35.3146C41.5271 36.8417 42.2559 38.4035 42.9501 39.9653C42.603 40.0694 42.2212 40.1736 41.8742 40.2776C27.7831 44.8243 20.2863 57.2495 19.6616 58.2907C15.3232 53.4664 12.6508 47.0456 12.6508 40.0347ZM40 67.3492C33.6833 67.3492 27.8525 65.1974 23.2364 61.5878C23.7224 60.5814 29.2755 49.8915 44.6854 44.5119C44.7549 44.4772 44.7896 44.4772 44.859 44.4425C48.7115 54.4035 50.2733 62.7679 50.6898 65.1627C47.3926 66.5857 43.7831 67.3492 40 67.3492ZM55.2365 62.6638C54.9588 60.9978 53.5011 53.0152 49.9263 43.1931C58.4989 41.8395 65.9956 44.0607 66.9327 44.3731C65.7527 51.974 61.3796 58.5336 55.2365 62.6638Z" fill="#309A9A"/>
</svg>
