<svg width="80" height="80" viewBox="0 0 80 80" fill="none" xmlns="http://www.w3.org/2000/svg">
<path fill-rule="evenodd" clip-rule="evenodd" d="M40.1534 9.00002C32.5203 8.99226 25.134 11.703 19.318 16.6465C13.502 21.5901 9.63661 28.4432 8.41447 35.9778C7.19232 43.5124 8.69332 51.2359 12.6485 57.7644C16.6037 64.2928 22.7544 69.1994 29.9986 71.6048C31.6155 71.9005 32.1873 70.8949 32.1873 70.047C32.1873 69.1992 32.1873 67.2668 32.1873 64.5852C23.2156 66.5372 21.3227 60.2669 21.3227 60.2669C20.7275 58.3235 19.463 56.6539 17.7537 55.5543C14.8552 53.5825 17.9903 53.5825 17.9903 53.5825C19.0064 53.726 19.9765 54.0989 20.8271 54.6728C21.6778 55.2467 22.3867 56.0067 22.9001 56.8951C23.3364 57.6862 23.9246 58.3833 24.631 58.9466C25.3373 59.5098 26.148 59.9279 27.0163 60.1771C27.8847 60.4262 28.7937 60.5015 29.6913 60.3985C30.5888 60.2954 31.4571 60.0162 32.2465 59.5768C32.3702 57.9547 33.0695 56.4302 34.2183 55.2782C27.0803 54.4698 19.5875 51.7093 19.5875 39.5038C19.5385 36.3154 20.7175 33.2302 22.8804 30.887C21.9171 28.1147 22.0297 25.0818 23.1959 22.3886C23.1959 22.3886 25.8973 21.521 32.0296 25.6815C37.2954 24.2357 42.8536 24.2357 48.1195 25.6815C54.2518 21.521 56.9334 22.3886 56.9334 22.3886C58.1159 25.0533 58.2566 28.0645 57.3278 30.8279C59.4907 33.171 60.6697 36.2562 60.6207 39.4447C60.6207 51.7882 53.1081 54.4895 45.9505 55.2191C46.718 55.9906 47.3106 56.9181 47.6883 57.9387C48.0659 58.9593 48.2197 60.0492 48.1392 61.1345C48.1392 65.433 48.1392 68.9034 48.1392 69.9485C48.1392 70.9935 48.711 71.802 50.3476 71.4865C57.5093 69.0176 63.568 64.0971 67.4533 57.594C71.3386 51.091 72.8006 43.4241 71.5808 35.9476C70.3611 28.4712 66.5382 21.6664 60.7875 16.7355C55.0368 11.8045 47.7284 9.06467 40.1534 9.00002V9.00002Z" fill="#309A9A"/>
</svg>
