<svg width="80" height="80" viewBox="0 0 80 80" fill="none" xmlns="http://www.w3.org/2000/svg">
<path fill-rule="evenodd" clip-rule="evenodd" d="M14.0871 12.1091C12.8667 12.3795 11.8105 13.2372 11.2729 14.3944L11 14.9818V39.3338V63.6858L11.3308 64.3635C11.7478 65.2181 12.6061 66.0441 13.4385 66.3923L14.0365 66.6423L37.5693 66.6714C54.3166 66.6922 61.2901 66.6682 61.754 66.5885C63.0777 66.3609 64.2077 65.4937 64.7767 64.2689L65.0496 63.6815V39.3317V14.9818L64.7564 14.3414C64.3783 13.5155 63.455 12.6238 62.6142 12.2723L62.0131 12.021L38.3284 12.0035C20.1408 11.9899 14.5146 12.0144 14.0871 12.1091ZM23.995 19.6334C25.1481 19.9015 26.3785 20.8206 27.0138 21.8882C27.9461 23.4555 27.8207 25.5527 26.7061 27.0305C26.1873 27.7183 25.4079 28.3187 24.6379 28.6235C23.8631 28.9302 22.2927 28.9583 21.4999 28.6795C18.2622 27.541 17.2901 23.361 19.6982 20.932C20.8444 19.7758 22.4809 19.2813 23.995 19.6334ZM50.765 32.2218C54.6664 33.2525 56.5361 36.0265 57.002 41.4757C57.0574 42.1239 57.1028 46.2057 57.1032 50.5877L57.1041 58.5257H53.1139H49.1237L49.0789 50.894C49.0311 42.7321 49.0263 42.6521 48.5025 41.2463C48.214 40.472 47.4539 39.6339 46.7717 39.3378C45.6015 38.8301 43.7561 38.8957 42.5597 39.4876C41.4344 40.0442 40.8191 40.8872 40.3746 42.4809C40.162 43.2437 40.156 43.4449 40.1235 50.894L40.0902 58.5257H36.0463H32.0024V45.5085V32.4912H35.8969H39.7914L39.8191 34.2949L39.8467 36.0985L40.2423 35.4945C41.0388 34.2785 42.6073 33.0042 43.9681 32.4674C45.2721 31.953 45.7997 31.8784 47.8428 31.9193C49.5077 31.9527 49.9 31.9933 50.765 32.2218ZM27.0428 45.5085V58.5257H22.9941H18.9455V45.5085V32.4912H22.9941H27.0428V45.5085ZM70.3867 59.7049C69.6839 59.8958 69.3966 60.0534 68.8236 60.5627C68.5236 60.8294 68.223 61.2398 68.0139 61.6684C67.7084 62.2942 67.6812 62.4294 67.6812 63.322C67.6812 64.1894 67.713 64.3594 67.9767 64.9011C68.3535 65.6752 69.0029 66.3297 69.7363 66.6744C70.5444 67.0543 71.7905 67.109 72.6059 66.8004C75.4343 65.7302 75.8603 61.8172 73.327 60.1775C72.7956 59.8335 71.8413 59.5428 71.2784 59.5534C71.0814 59.5571 70.6801 59.6252 70.3867 59.7049ZM72.5846 60.2745C73.5493 60.6973 74.1659 61.4116 74.4666 62.4547C74.8949 63.941 74.1412 65.5936 72.711 66.3041C72.0153 66.6498 70.6235 66.6441 69.9158 66.2928C69.2785 65.9765 68.7235 65.4149 68.3727 64.7315C68.1365 64.2712 68.0951 64.0646 68.0909 63.3242C68.087 62.6232 68.1299 62.3665 68.3143 61.9892C69.1389 60.3013 70.9692 59.5663 72.5846 60.2745ZM70.0261 61.3504C69.9889 61.3877 69.9586 62.2836 69.9586 63.3412V65.264H70.2622H70.5659V64.3962V63.5284H70.8963C71.2011 63.5284 71.269 63.596 71.7687 64.3962C72.2468 65.1619 72.3453 65.264 72.6058 65.264C72.88 65.264 72.8924 65.2477 72.7808 65.0343C72.7147 64.908 72.4854 64.5429 72.2712 64.2231C71.8311 63.5661 71.8187 63.5284 72.0436 63.5284C72.1327 63.5284 72.3662 63.3663 72.5626 63.1683C72.8914 62.8366 72.9154 62.7713 72.8672 62.3401C72.8047 61.7801 72.5639 61.506 72.0235 61.3796C71.5632 61.2719 70.1248 61.2508 70.0261 61.3504ZM72.1261 61.9873C72.2373 62.1112 72.289 62.3055 72.2683 62.5211C72.2268 62.955 71.9241 63.1165 71.1479 63.1185L70.5659 63.12V62.4564V61.7927H71.2587C71.8116 61.7927 71.9868 61.8321 72.1261 61.9873Z" fill="#0C2727"/>
</svg>
