<svg width="80" height="66" viewBox="0 0 80 66" fill="none" xmlns="http://www.w3.org/2000/svg">
<path d="M71.8099 16.1829C71.8586 16.8881 71.8586 17.5934 71.8586 18.3051C71.8586 39.9927 55.3484 65.0051 25.1586 65.0051V64.9921C16.2405 65.0051 7.50762 62.4506 0 57.634C1.29677 57.79 2.60004 57.868 3.90656 57.8713C11.2972 57.8778 18.4765 55.398 24.2909 50.8316C17.2675 50.6984 11.1087 46.1191 8.95714 39.4337C11.4174 39.9082 13.9525 39.8107 16.3673 39.151C8.71014 37.6039 3.2013 30.8763 3.2013 23.0632C3.2013 22.9917 3.2013 22.9235 3.2013 22.8552C5.48284 24.126 8.03738 24.8312 10.6504 24.9092C3.43855 20.0894 1.21552 10.4953 5.57059 2.99415C13.9037 13.2481 26.1987 19.4817 39.3971 20.1414C38.0743 14.4408 39.8814 8.46724 44.1454 4.45992C50.756 -1.75417 61.153 -1.43567 67.3671 5.17168C71.0429 4.44692 74.5659 3.09815 77.79 1.18712C76.5647 4.98643 74.0004 8.21373 70.5749 10.2645C73.8282 9.88101 77.0067 9.00999 80 7.68072C77.7965 10.9828 75.0209 13.8591 71.8099 16.1829Z" fill="#0C2727"/>
</svg>
